# xmcd
#
# Track frame offsets:
#	150
#	26571
#	49370
#	74676
#	102318
#	151656
#	179648
#	203736
#	217285
#	263006
#	288483
#
# Disc length: 4348 seconds
#
# Revision: 0
# Processed by: cddbd v1.5.1PL0 Copyright (c) Steve Scherf et al.
# Submitted via: EasyCDDAExtractor 5.0.4.1
#
DISCID=ac10fa0b
DTITLE=Deep Purple - Live In Grimsby 6.2.02 - CD 1
DYEAR=2002
DGENRE=Hard Rock
TTITLE0=Woman From Tokyo
TTITLE1=Ted The Mechanic
TTITLE2=Mary Long
TTITLE3=Lazy
TTITLE4=Child In Time
TTITLE5=No One Came
TTITLE6=The Aviator
TTITLE7=The Well Dressed Guitar
TTITLE8=Fools
TTITLE9=Up The Wall
TTITLE10=Perfect Strangers
EXTD=segurarte@hotmail.com\n
EXTT0=
EXTT1=
EXTT2=
EXTT3=
EXTT4=
EXTT5=
EXTT6=
EXTT7=
EXTT8=
EXTT9=
EXTT10=
PLAYORDER=
